<svg xmlns="http://www.w3.org/2000/svg" xmlns:xlink="http://www.w3.org/1999/xlink" width="600" height="400" viewBox="0 0 2400 1600">
<defs>
  <clipPath id="clip240">
    <rect x="0" y="0" width="2400" height="1600"></rect>
  </clipPath>
</defs>
<path clip-path="url(#clip240)" d="
M0 1600 L2400 1600 L2400 0 L0 0  Z
  " fill="#ffffff" fill-rule="evenodd" fill-opacity="1"></path>
<defs>
  <clipPath id="clip241">
    <rect x="480" y="0" width="1681" height="1600"></rect>
  </clipPath>
</defs>
<path clip-path="url(#clip240)" d="
M251.372 1410.9 L2352.76 1410.9 L2352.76 47.2441 L251.372 47.2441  Z
  " fill="#ffffff" fill-rule="evenodd" fill-opacity="1"></path>
<defs>
  <clipPath id="clip242">
    <rect x="251" y="47" width="2102" height="1365"></rect>
  </clipPath>
</defs>
<polyline clip-path="url(#clip242)" style="stroke:#000000; stroke-linecap:round; stroke-linejoin:round; stroke-width:2; stroke-opacity:0.1; fill:none" points="
  251.372,1410.9 251.372,47.2441 
  "></polyline>
<polyline clip-path="url(#clip242)" style="stroke:#000000; stroke-linecap:round; stroke-linejoin:round; stroke-width:2; stroke-opacity:0.1; fill:none" points="
  601.603,1410.9 601.603,47.2441 
  "></polyline>
<polyline clip-path="url(#clip242)" style="stroke:#000000; stroke-linecap:round; stroke-linejoin:round; stroke-width:2; stroke-opacity:0.1; fill:none" points="
  951.833,1410.9 951.833,47.2441 
  "></polyline>
<polyline clip-path="url(#clip242)" style="stroke:#000000; stroke-linecap:round; stroke-linejoin:round; stroke-width:2; stroke-opacity:0.1; fill:none" points="
  1302.06,1410.9 1302.06,47.2441 
  "></polyline>
<polyline clip-path="url(#clip242)" style="stroke:#000000; stroke-linecap:round; stroke-linejoin:round; stroke-width:2; stroke-opacity:0.1; fill:none" points="
  1652.29,1410.9 1652.29,47.2441 
  "></polyline>
<polyline clip-path="url(#clip242)" style="stroke:#000000; stroke-linecap:round; stroke-linejoin:round; stroke-width:2; stroke-opacity:0.1; fill:none" points="
  2002.53,1410.9 2002.53,47.2441 
  "></polyline>
<polyline clip-path="url(#clip242)" style="stroke:#000000; stroke-linecap:round; stroke-linejoin:round; stroke-width:2; stroke-opacity:0.1; fill:none" points="
  2352.76,1410.9 2352.76,47.2441 
  "></polyline>
<polyline clip-path="url(#clip242)" style="stroke:#000000; stroke-linecap:round; stroke-linejoin:round; stroke-width:2; stroke-opacity:0.05; fill:none" points="
  356.802,1410.9 356.802,47.2441 
  "></polyline>
<polyline clip-path="url(#clip242)" style="stroke:#000000; stroke-linecap:round; stroke-linejoin:round; stroke-width:2; stroke-opacity:0.05; fill:none" points="
  418.475,1410.9 418.475,47.2441 
  "></polyline>
<polyline clip-path="url(#clip242)" style="stroke:#000000; stroke-linecap:round; stroke-linejoin:round; stroke-width:2; stroke-opacity:0.05; fill:none" points="
  462.232,1410.9 462.232,47.2441 
  "></polyline>
<polyline clip-path="url(#clip242)" style="stroke:#000000; stroke-linecap:round; stroke-linejoin:round; stroke-width:2; stroke-opacity:0.05; fill:none" points="
  496.173,1410.9 496.173,47.2441 
  "></polyline>
<polyline clip-path="url(#clip242)" style="stroke:#000000; stroke-linecap:round; stroke-linejoin:round; stroke-width:2; stroke-opacity:0.05; fill:none" points="
  523.905,1410.9 523.905,47.2441 
  "></polyline>
<polyline clip-path="url(#clip242)" style="stroke:#000000; stroke-linecap:round; stroke-linejoin:round; stroke-width:2; stroke-opacity:0.05; fill:none" points="
  547.351,1410.9 547.351,47.2441 
  "></polyline>
<polyline clip-path="url(#clip242)" style="stroke:#000000; stroke-linecap:round; stroke-linejoin:round; stroke-width:2; stroke-opacity:0.05; fill:none" points="
  567.662,1410.9 567.662,47.2441 
  "></polyline>
<polyline clip-path="url(#clip242)" style="stroke:#000000; stroke-linecap:round; stroke-linejoin:round; stroke-width:2; stroke-opacity:0.05; fill:none" points="
  585.577,1410.9 585.577,47.2441 
  "></polyline>
<polyline clip-path="url(#clip242)" style="stroke:#000000; stroke-linecap:round; stroke-linejoin:round; stroke-width:2; stroke-opacity:0.05; fill:none" points="
  707.033,1410.9 707.033,47.2441 
  "></polyline>
<polyline clip-path="url(#clip242)" style="stroke:#000000; stroke-linecap:round; stroke-linejoin:round; stroke-width:2; stroke-opacity:0.05; fill:none" points="
  768.705,1410.9 768.705,47.2441 
  "></polyline>
<polyline clip-path="url(#clip242)" style="stroke:#000000; stroke-linecap:round; stroke-linejoin:round; stroke-width:2; stroke-opacity:0.05; fill:none" points="
  812.463,1410.9 812.463,47.2441 
  "></polyline>
<polyline clip-path="url(#clip242)" style="stroke:#000000; stroke-linecap:round; stroke-linejoin:round; stroke-width:2; stroke-opacity:0.05; fill:none" points="
  846.403,1410.9 846.403,47.2441 
  "></polyline>
<polyline clip-path="url(#clip242)" style="stroke:#000000; stroke-linecap:round; stroke-linejoin:round; stroke-width:2; stroke-opacity:0.05; fill:none" points="
  874.135,1410.9 874.135,47.2441 
  "></polyline>
<polyline clip-path="url(#clip242)" style="stroke:#000000; stroke-linecap:round; stroke-linejoin:round; stroke-width:2; stroke-opacity:0.05; fill:none" points="
  897.582,1410.9 897.582,47.2441 
  "></polyline>
<polyline clip-path="url(#clip242)" style="stroke:#000000; stroke-linecap:round; stroke-linejoin:round; stroke-width:2; stroke-opacity:0.05; fill:none" points="
  917.893,1410.9 917.893,47.2441 
  "></polyline>
<polyline clip-path="url(#clip242)" style="stroke:#000000; stroke-linecap:round; stroke-linejoin:round; stroke-width:2; stroke-opacity:0.05; fill:none" points="
  935.808,1410.9 935.808,47.2441 
  "></polyline>
<polyline clip-path="url(#clip242)" style="stroke:#000000; stroke-linecap:round; stroke-linejoin:round; stroke-width:2; stroke-opacity:0.05; fill:none" points="
  1057.26,1410.9 1057.26,47.2441 
  "></polyline>
<polyline clip-path="url(#clip242)" style="stroke:#000000; stroke-linecap:round; stroke-linejoin:round; stroke-width:2; stroke-opacity:0.05; fill:none" points="
  1118.94,1410.9 1118.94,47.2441 
  "></polyline>
<polyline clip-path="url(#clip242)" style="stroke:#000000; stroke-linecap:round; stroke-linejoin:round; stroke-width:2; stroke-opacity:0.05; fill:none" points="
  1162.69,1410.9 1162.69,47.2441 
  "></polyline>
<polyline clip-path="url(#clip242)" style="stroke:#000000; stroke-linecap:round; stroke-linejoin:round; stroke-width:2; stroke-opacity:0.05; fill:none" points="
  1196.63,1410.9 1196.63,47.2441 
  "></polyline>
<polyline clip-path="url(#clip242)" style="stroke:#000000; stroke-linecap:round; stroke-linejoin:round; stroke-width:2; stroke-opacity:0.05; fill:none" points="
  1224.37,1410.9 1224.37,47.2441 
  "></polyline>
<polyline clip-path="url(#clip242)" style="stroke:#000000; stroke-linecap:round; stroke-linejoin:round; stroke-width:2; stroke-opacity:0.05; fill:none" points="
  1247.81,1410.9 1247.81,47.2441 
  "></polyline>
<polyline clip-path="url(#clip242)" style="stroke:#000000; stroke-linecap:round; stroke-linejoin:round; stroke-width:2; stroke-opacity:0.05; fill:none" points="
  1268.12,1410.9 1268.12,47.2441 
  "></polyline>
<polyline clip-path="url(#clip242)" style="stroke:#000000; stroke-linecap:round; stroke-linejoin:round; stroke-width:2; stroke-opacity:0.05; fill:none" points="
  1286.04,1410.9 1286.04,47.2441 
  "></polyline>
<polyline clip-path="url(#clip242)" style="stroke:#000000; stroke-linecap:round; stroke-linejoin:round; stroke-width:2; stroke-opacity:0.05; fill:none" points="
  1407.49,1410.9 1407.49,47.2441 
  "></polyline>
<polyline clip-path="url(#clip242)" style="stroke:#000000; stroke-linecap:round; stroke-linejoin:round; stroke-width:2; stroke-opacity:0.05; fill:none" points="
  1469.17,1410.9 1469.17,47.2441 
  "></polyline>
<polyline clip-path="url(#clip242)" style="stroke:#000000; stroke-linecap:round; stroke-linejoin:round; stroke-width:2; stroke-opacity:0.05; fill:none" points="
  1512.92,1410.9 1512.92,47.2441 
  "></polyline>
<polyline clip-path="url(#clip242)" style="stroke:#000000; stroke-linecap:round; stroke-linejoin:round; stroke-width:2; stroke-opacity:0.05; fill:none" points="
  1546.86,1410.9 1546.86,47.2441 
  "></polyline>
<polyline clip-path="url(#clip242)" style="stroke:#000000; stroke-linecap:round; stroke-linejoin:round; stroke-width:2; stroke-opacity:0.05; fill:none" points="
  1574.6,1410.9 1574.6,47.2441 
  "></polyline>
<polyline clip-path="url(#clip242)" style="stroke:#000000; stroke-linecap:round; stroke-linejoin:round; stroke-width:2; stroke-opacity:0.05; fill:none" points="
  1598.04,1410.9 1598.04,47.2441 
  "></polyline>
<polyline clip-path="url(#clip242)" style="stroke:#000000; stroke-linecap:round; stroke-linejoin:round; stroke-width:2; stroke-opacity:0.05; fill:none" points="
  1618.35,1410.9 1618.35,47.2441 
  "></polyline>
<polyline clip-path="url(#clip242)" style="stroke:#000000; stroke-linecap:round; stroke-linejoin:round; stroke-width:2; stroke-opacity:0.05; fill:none" points="
  1636.27,1410.9 1636.27,47.2441 
  "></polyline>
<polyline clip-path="url(#clip242)" style="stroke:#000000; stroke-linecap:round; stroke-linejoin:round; stroke-width:2; stroke-opacity:0.05; fill:none" points="
  1757.72,1410.9 1757.72,47.2441 
  "></polyline>
<polyline clip-path="url(#clip242)" style="stroke:#000000; stroke-linecap:round; stroke-linejoin:round; stroke-width:2; stroke-opacity:0.05; fill:none" points="
  1819.4,1410.9 1819.4,47.2441 
  "></polyline>
<polyline clip-path="url(#clip242)" style="stroke:#000000; stroke-linecap:round; stroke-linejoin:round; stroke-width:2; stroke-opacity:0.05; fill:none" points="
  1863.15,1410.9 1863.15,47.2441 
  "></polyline>
<polyline clip-path="url(#clip242)" style="stroke:#000000; stroke-linecap:round; stroke-linejoin:round; stroke-width:2; stroke-opacity:0.05; fill:none" points="
  1897.1,1410.9 1897.1,47.2441 
  "></polyline>
<polyline clip-path="url(#clip242)" style="stroke:#000000; stroke-linecap:round; stroke-linejoin:round; stroke-width:2; stroke-opacity:0.05; fill:none" points="
  1924.83,1410.9 1924.83,47.2441 
  "></polyline>
<polyline clip-path="url(#clip242)" style="stroke:#000000; stroke-linecap:round; stroke-linejoin:round; stroke-width:2; stroke-opacity:0.05; fill:none" points="
  1948.27,1410.9 1948.27,47.2441 
  "></polyline>
<polyline clip-path="url(#clip242)" style="stroke:#000000; stroke-linecap:round; stroke-linejoin:round; stroke-width:2; stroke-opacity:0.05; fill:none" points="
  1968.58,1410.9 1968.58,47.2441 
  "></polyline>
<polyline clip-path="url(#clip242)" style="stroke:#000000; stroke-linecap:round; stroke-linejoin:round; stroke-width:2; stroke-opacity:0.05; fill:none" points="
  1986.5,1410.9 1986.5,47.2441 
  "></polyline>
<polyline clip-path="url(#clip242)" style="stroke:#000000; stroke-linecap:round; stroke-linejoin:round; stroke-width:2; stroke-opacity:0.05; fill:none" points="
  2107.96,1410.9 2107.96,47.2441 
  "></polyline>
<polyline clip-path="url(#clip242)" style="stroke:#000000; stroke-linecap:round; stroke-linejoin:round; stroke-width:2; stroke-opacity:0.05; fill:none" points="
  2169.63,1410.9 2169.63,47.2441 
  "></polyline>
<polyline clip-path="url(#clip242)" style="stroke:#000000; stroke-linecap:round; stroke-linejoin:round; stroke-width:2; stroke-opacity:0.05; fill:none" points="
  2213.39,1410.9 2213.39,47.2441 
  "></polyline>
<polyline clip-path="url(#clip242)" style="stroke:#000000; stroke-linecap:round; stroke-linejoin:round; stroke-width:2; stroke-opacity:0.05; fill:none" points="
  2247.33,1410.9 2247.33,47.2441 
  "></polyline>
<polyline clip-path="url(#clip242)" style="stroke:#000000; stroke-linecap:round; stroke-linejoin:round; stroke-width:2; stroke-opacity:0.05; fill:none" points="
  2275.06,1410.9 2275.06,47.2441 
  "></polyline>
<polyline clip-path="url(#clip242)" style="stroke:#000000; stroke-linecap:round; stroke-linejoin:round; stroke-width:2; stroke-opacity:0.05; fill:none" points="
  2298.5,1410.9 2298.5,47.2441 
  "></polyline>
<polyline clip-path="url(#clip242)" style="stroke:#000000; stroke-linecap:round; stroke-linejoin:round; stroke-width:2; stroke-opacity:0.05; fill:none" points="
  2318.82,1410.9 2318.82,47.2441 
  "></polyline>
<polyline clip-path="url(#clip242)" style="stroke:#000000; stroke-linecap:round; stroke-linejoin:round; stroke-width:2; stroke-opacity:0.05; fill:none" points="
  2336.73,1410.9 2336.73,47.2441 
  "></polyline>
<polyline clip-path="url(#clip240)" style="stroke:#000000; stroke-linecap:round; stroke-linejoin:round; stroke-width:4; stroke-opacity:1; fill:none" points="
  251.372,1410.9 2352.76,1410.9 
  "></polyline>
<polyline clip-path="url(#clip240)" style="stroke:#000000; stroke-linecap:round; stroke-linejoin:round; stroke-width:4; stroke-opacity:1; fill:none" points="
  251.372,47.2441 2352.76,47.2441 
  "></polyline>
<polyline clip-path="url(#clip240)" style="stroke:#000000; stroke-linecap:round; stroke-linejoin:round; stroke-width:4; stroke-opacity:1; fill:none" points="
  251.372,1410.9 251.372,1392 
  "></polyline>
<polyline clip-path="url(#clip240)" style="stroke:#000000; stroke-linecap:round; stroke-linejoin:round; stroke-width:4; stroke-opacity:1; fill:none" points="
  601.603,1410.9 601.603,1392 
  "></polyline>
<polyline clip-path="url(#clip240)" style="stroke:#000000; stroke-linecap:round; stroke-linejoin:round; stroke-width:4; stroke-opacity:1; fill:none" points="
  951.833,1410.9 951.833,1392 
  "></polyline>
<polyline clip-path="url(#clip240)" style="stroke:#000000; stroke-linecap:round; stroke-linejoin:round; stroke-width:4; stroke-opacity:1; fill:none" points="
  1302.06,1410.9 1302.06,1392 
  "></polyline>
<polyline clip-path="url(#clip240)" style="stroke:#000000; stroke-linecap:round; stroke-linejoin:round; stroke-width:4; stroke-opacity:1; fill:none" points="
  1652.29,1410.9 1652.29,1392 
  "></polyline>
<polyline clip-path="url(#clip240)" style="stroke:#000000; stroke-linecap:round; stroke-linejoin:round; stroke-width:4; stroke-opacity:1; fill:none" points="
  2002.53,1410.9 2002.53,1392 
  "></polyline>
<polyline clip-path="url(#clip240)" style="stroke:#000000; stroke-linecap:round; stroke-linejoin:round; stroke-width:4; stroke-opacity:1; fill:none" points="
  2352.76,1410.9 2352.76,1392 
  "></polyline>
<polyline clip-path="url(#clip240)" style="stroke:#000000; stroke-linecap:round; stroke-linejoin:round; stroke-width:4; stroke-opacity:1; fill:none" points="
  356.802,1410.9 356.802,1401.45 
  "></polyline>
<polyline clip-path="url(#clip240)" style="stroke:#000000; stroke-linecap:round; stroke-linejoin:round; stroke-width:4; stroke-opacity:1; fill:none" points="
  418.475,1410.9 418.475,1401.45 
  "></polyline>
<polyline clip-path="url(#clip240)" style="stroke:#000000; stroke-linecap:round; stroke-linejoin:round; stroke-width:4; stroke-opacity:1; fill:none" points="
  462.232,1410.9 462.232,1401.45 
  "></polyline>
<polyline clip-path="url(#clip240)" style="stroke:#000000; stroke-linecap:round; stroke-linejoin:round; stroke-width:4; stroke-opacity:1; fill:none" points="
  496.173,1410.9 496.173,1401.45 
  "></polyline>
<polyline clip-path="url(#clip240)" style="stroke:#000000; stroke-linecap:round; stroke-linejoin:round; stroke-width:4; stroke-opacity:1; fill:none" points="
  523.905,1410.9 523.905,1401.45 
  "></polyline>
<polyline clip-path="url(#clip240)" style="stroke:#000000; stroke-linecap:round; stroke-linejoin:round; stroke-width:4; stroke-opacity:1; fill:none" points="
  547.351,1410.9 547.351,1401.45 
  "></polyline>
<polyline clip-path="url(#clip240)" style="stroke:#000000; stroke-linecap:round; stroke-linejoin:round; stroke-width:4; stroke-opacity:1; fill:none" points="
  567.662,1410.9 567.662,1401.45 
  "></polyline>
<polyline clip-path="url(#clip240)" style="stroke:#000000; stroke-linecap:round; stroke-linejoin:round; stroke-width:4; stroke-opacity:1; fill:none" points="
  585.577,1410.9 585.577,1401.45 
  "></polyline>
<polyline clip-path="url(#clip240)" style="stroke:#000000; stroke-linecap:round; stroke-linejoin:round; stroke-width:4; stroke-opacity:1; fill:none" points="
  707.033,1410.9 707.033,1401.45 
  "></polyline>
<polyline clip-path="url(#clip240)" style="stroke:#000000; stroke-linecap:round; stroke-linejoin:round; stroke-width:4; stroke-opacity:1; fill:none" points="
  768.705,1410.9 768.705,1401.45 
  "></polyline>
<polyline clip-path="url(#clip240)" style="stroke:#000000; stroke-linecap:round; stroke-linejoin:round; stroke-width:4; stroke-opacity:1; fill:none" points="
  812.463,1410.9 812.463,1401.45 
  "></polyline>
<polyline clip-path="url(#clip240)" style="stroke:#000000; stroke-linecap:round; stroke-linejoin:round; stroke-width:4; stroke-opacity:1; fill:none" points="
  846.403,1410.9 846.403,1401.45 
  "></polyline>
<polyline clip-path="url(#clip240)" style="stroke:#000000; stroke-linecap:round; stroke-linejoin:round; stroke-width:4; stroke-opacity:1; fill:none" points="
  874.135,1410.9 874.135,1401.45 
  "></polyline>
<polyline clip-path="url(#clip240)" style="stroke:#000000; stroke-linecap:round; stroke-linejoin:round; stroke-width:4; stroke-opacity:1; fill:none" points="
  897.582,1410.9 897.582,1401.45 
  "></polyline>
<polyline clip-path="url(#clip240)" style="stroke:#000000; stroke-linecap:round; stroke-linejoin:round; stroke-width:4; stroke-opacity:1; fill:none" points="
  917.893,1410.9 917.893,1401.45 
  "></polyline>
<polyline clip-path="url(#clip240)" style="stroke:#000000; stroke-linecap:round; stroke-linejoin:round; stroke-width:4; stroke-opacity:1; fill:none" points="
  935.808,1410.9 935.808,1401.45 
  "></polyline>
<polyline clip-path="url(#clip240)" style="stroke:#000000; stroke-linecap:round; stroke-linejoin:round; stroke-width:4; stroke-opacity:1; fill:none" points="
  1057.26,1410.9 1057.26,1401.45 
  "></polyline>
<polyline clip-path="url(#clip240)" style="stroke:#000000; stroke-linecap:round; stroke-linejoin:round; stroke-width:4; stroke-opacity:1; fill:none" points="
  1118.94,1410.9 1118.94,1401.45 
  "></polyline>
<polyline clip-path="url(#clip240)" style="stroke:#000000; stroke-linecap:round; stroke-linejoin:round; stroke-width:4; stroke-opacity:1; fill:none" points="
  1162.69,1410.9 1162.69,1401.45 
  "></polyline>
<polyline clip-path="url(#clip240)" style="stroke:#000000; stroke-linecap:round; stroke-linejoin:round; stroke-width:4; stroke-opacity:1; fill:none" points="
  1196.63,1410.9 1196.63,1401.45 
  "></polyline>
<polyline clip-path="url(#clip240)" style="stroke:#000000; stroke-linecap:round; stroke-linejoin:round; stroke-width:4; stroke-opacity:1; fill:none" points="
  1224.37,1410.9 1224.37,1401.45 
  "></polyline>
<polyline clip-path="url(#clip240)" style="stroke:#000000; stroke-linecap:round; stroke-linejoin:round; stroke-width:4; stroke-opacity:1; fill:none" points="
  1247.81,1410.9 1247.81,1401.45 
  "></polyline>
<polyline clip-path="url(#clip240)" style="stroke:#000000; stroke-linecap:round; stroke-linejoin:round; stroke-width:4; stroke-opacity:1; fill:none" points="
  1268.12,1410.9 1268.12,1401.45 
  "></polyline>
<polyline clip-path="url(#clip240)" style="stroke:#000000; stroke-linecap:round; stroke-linejoin:round; stroke-width:4; stroke-opacity:1; fill:none" points="
  1286.04,1410.9 1286.04,1401.45 
  "></polyline>
<polyline clip-path="url(#clip240)" style="stroke:#000000; stroke-linecap:round; stroke-linejoin:round; stroke-width:4; stroke-opacity:1; fill:none" points="
  1407.49,1410.9 1407.49,1401.45 
  "></polyline>
<polyline clip-path="url(#clip240)" style="stroke:#000000; stroke-linecap:round; stroke-linejoin:round; stroke-width:4; stroke-opacity:1; fill:none" points="
  1469.17,1410.9 1469.17,1401.45 
  "></polyline>
<polyline clip-path="url(#clip240)" style="stroke:#000000; stroke-linecap:round; stroke-linejoin:round; stroke-width:4; stroke-opacity:1; fill:none" points="
  1512.92,1410.9 1512.92,1401.45 
  "></polyline>
<polyline clip-path="url(#clip240)" style="stroke:#000000; stroke-linecap:round; stroke-linejoin:round; stroke-width:4; stroke-opacity:1; fill:none" points="
  1546.86,1410.9 1546.86,1401.45 
  "></polyline>
<polyline clip-path="url(#clip240)" style="stroke:#000000; stroke-linecap:round; stroke-linejoin:round; stroke-width:4; stroke-opacity:1; fill:none" points="
  1574.6,1410.9 1574.6,1401.45 
  "></polyline>
<polyline clip-path="url(#clip240)" style="stroke:#000000; stroke-linecap:round; stroke-linejoin:round; stroke-width:4; stroke-opacity:1; fill:none" points="
  1598.04,1410.9 1598.04,1401.45 
  "></polyline>
<polyline clip-path="url(#clip240)" style="stroke:#000000; stroke-linecap:round; stroke-linejoin:round; stroke-width:4; stroke-opacity:1; fill:none" points="
  1618.35,1410.9 1618.35,1401.45 
  "></polyline>
<polyline clip-path="url(#clip240)" style="stroke:#000000; stroke-linecap:round; stroke-linejoin:round; stroke-width:4; stroke-opacity:1; fill:none" points="
  1636.27,1410.9 1636.27,1401.45 
  "></polyline>
<polyline clip-path="url(#clip240)" style="stroke:#000000; stroke-linecap:round; stroke-linejoin:round; stroke-width:4; stroke-opacity:1; fill:none" points="
  1757.72,1410.9 1757.72,1401.45 
  "></polyline>
<polyline clip-path="url(#clip240)" style="stroke:#000000; stroke-linecap:round; stroke-linejoin:round; stroke-width:4; stroke-opacity:1; fill:none" points="
  1819.4,1410.9 1819.4,1401.45 
  "></polyline>
<polyline clip-path="url(#clip240)" style="stroke:#000000; stroke-linecap:round; stroke-linejoin:round; stroke-width:4; stroke-opacity:1; fill:none" points="
  1863.15,1410.9 1863.15,1401.45 
  "></polyline>
<polyline clip-path="url(#clip240)" style="stroke:#000000; stroke-linecap:round; stroke-linejoin:round; stroke-width:4; stroke-opacity:1; fill:none" points="
  1897.1,1410.9 1897.1,1401.45 
  "></polyline>
<polyline clip-path="url(#clip240)" style="stroke:#000000; stroke-linecap:round; stroke-linejoin:round; stroke-width:4; stroke-opacity:1; fill:none" points="
  1924.83,1410.9 1924.83,1401.45 
  "></polyline>
<polyline clip-path="url(#clip240)" style="stroke:#000000; stroke-linecap:round; stroke-linejoin:round; stroke-width:4; stroke-opacity:1; fill:none" points="
  1948.27,1410.9 1948.27,1401.45 
  "></polyline>
<polyline clip-path="url(#clip240)" style="stroke:#000000; stroke-linecap:round; stroke-linejoin:round; stroke-width:4; stroke-opacity:1; fill:none" points="
  1968.58,1410.9 1968.58,1401.45 
  "></polyline>
<polyline clip-path="url(#clip240)" style="stroke:#000000; stroke-linecap:round; stroke-linejoin:round; stroke-width:4; stroke-opacity:1; fill:none" points="
  1986.5,1410.9 1986.5,1401.45 
  "></polyline>
<polyline clip-path="url(#clip240)" style="stroke:#000000; stroke-linecap:round; stroke-linejoin:round; stroke-width:4; stroke-opacity:1; fill:none" points="
  2107.96,1410.9 2107.96,1401.45 
  "></polyline>
<polyline clip-path="url(#clip240)" style="stroke:#000000; stroke-linecap:round; stroke-linejoin:round; stroke-width:4; stroke-opacity:1; fill:none" points="
  2169.63,1410.9 2169.63,1401.45 
  "></polyline>
<polyline clip-path="url(#clip240)" style="stroke:#000000; stroke-linecap:round; stroke-linejoin:round; stroke-width:4; stroke-opacity:1; fill:none" points="
  2213.39,1410.9 2213.39,1401.45 
  "></polyline>
<polyline clip-path="url(#clip240)" style="stroke:#000000; stroke-linecap:round; stroke-linejoin:round; stroke-width:4; stroke-opacity:1; fill:none" points="
  2247.33,1410.9 2247.33,1401.45 
  "></polyline>
<polyline clip-path="url(#clip240)" style="stroke:#000000; stroke-linecap:round; stroke-linejoin:round; stroke-width:4; stroke-opacity:1; fill:none" points="
  2275.06,1410.9 2275.06,1401.45 
  "></polyline>
<polyline clip-path="url(#clip240)" style="stroke:#000000; stroke-linecap:round; stroke-linejoin:round; stroke-width:4; stroke-opacity:1; fill:none" points="
  2298.5,1410.9 2298.5,1401.45 
  "></polyline>
<polyline clip-path="url(#clip240)" style="stroke:#000000; stroke-linecap:round; stroke-linejoin:round; stroke-width:4; stroke-opacity:1; fill:none" points="
  2318.82,1410.9 2318.82,1401.45 
  "></polyline>
<polyline clip-path="url(#clip240)" style="stroke:#000000; stroke-linecap:round; stroke-linejoin:round; stroke-width:4; stroke-opacity:1; fill:none" points="
  2336.73,1410.9 2336.73,1401.45 
  "></polyline>
<path clip-path="url(#clip240)" d="M217.145 1485.02 L224.784 1485.02 L224.784 1458.66 L216.474 1460.32 L216.474 1456.06 L224.737 1454.4 L229.413 1454.4 L229.413 1485.02 L237.052 1485.02 L237.052 1488.96 L217.145 1488.96 L217.145 1485.02 Z" fill="#000000" fill-rule="evenodd" fill-opacity="1"></path><path clip-path="url(#clip240)" d="M256.497 1457.48 Q252.885 1457.48 251.057 1461.04 Q249.251 1464.58 249.251 1471.71 Q249.251 1478.82 251.057 1482.38 Q252.885 1485.92 256.497 1485.92 Q260.131 1485.92 261.936 1482.38 Q263.765 1478.82 263.765 1471.71 Q263.765 1464.58 261.936 1461.04 Q260.131 1457.48 256.497 1457.48 M256.497 1453.77 Q262.307 1453.77 265.362 1458.38 Q268.441 1462.96 268.441 1471.71 Q268.441 1480.44 265.362 1485.04 Q262.307 1489.63 256.497 1489.63 Q250.686 1489.63 247.608 1485.04 Q244.552 1480.44 244.552 1471.71 Q244.552 1462.96 247.608 1458.38 Q250.686 1453.77 256.497 1453.77 Z" fill="#000000" fill-rule="evenodd" fill-opacity="1"></path><path clip-path="url(#clip240)" d="M273.011 1458.35 L286.271 1458.35 L286.271 1461.55 L268.441 1461.55 L268.441 1458.35 Q270.604 1456.11 274.328 1452.35 Q278.071 1448.57 279.03 1447.48 Q280.854 1445.43 281.569 1444.02 Q282.302 1442.59 282.302 1441.22 Q282.302 1438.98 280.722 1437.57 Q279.161 1436.16 276.641 1436.16 Q274.854 1436.16 272.861 1436.78 Q270.886 1437.4 268.629 1438.66 L268.629 1434.82 Q270.924 1433.9 272.917 1433.43 Q274.911 1432.96 276.566 1432.96 Q280.929 1432.96 283.525 1435.14 Q286.12 1437.32 286.12 1440.97 Q286.12 1442.7 285.462 1444.26 Q284.823 1445.8 283.111 1447.91 Q282.641 1448.46 280.121 1451.07 Q277.6 1453.67 273.011 1458.35 Z" fill="#000000" fill-rule="evenodd" fill-opacity="1"></path><path clip-path="url(#clip240)" d="M567.046 1485.02 L574.685 1485.02 L574.685 1458.66 L566.375 1460.32 L566.375 1456.06 L574.639 1454.4 L579.315 1454.4 L579.315 1485.02 L586.954 1485.02 L586.954 1488.96 L567.046 1488.96 L567.046 1485.02 Z" fill="#000000" fill-rule="evenodd" fill-opacity="1"></path><path clip-path="url(#clip240)" d="M606.398 1457.48 Q602.787 1457.48 600.958 1461.04 Q599.153 1464.58 599.153 1471.71 Q599.153 1478.82 600.958 1482.38 Q602.787 1485.92 606.398 1485.92 Q610.032 1485.92 611.838 1482.38 Q613.667 1478.82 613.667 1471.71 Q613.667 1464.58 611.838 1461.04 Q610.032 1457.48 606.398 1457.48 M606.398 1453.77 Q612.208 1453.77 615.264 1458.38 Q618.342 1462.96 618.342 1471.71 Q618.342 1480.44 615.264 1485.04 Q612.208 1489.63 606.398 1489.63 Q600.588 1489.63 597.509 1485.04 Q594.454 1480.44 594.454 1471.71 Q594.454 1462.96 597.509 1458.38 Q600.588 1453.77 606.398 1453.77 Z" fill="#000000" fill-rule="evenodd" fill-opacity="1"></path><path clip-path="url(#clip240)" d="M631.038 1446.41 Q633.765 1446.99 635.288 1448.83 Q636.83 1450.68 636.83 1453.38 Q636.83 1457.54 633.972 1459.82 Q631.113 1462.09 625.847 1462.09 Q624.079 1462.09 622.198 1461.73 Q620.336 1461.4 618.342 1460.7 L618.342 1457.03 Q619.922 1457.95 621.803 1458.42 Q623.684 1458.89 625.734 1458.89 Q629.307 1458.89 631.169 1457.48 Q633.05 1456.07 633.05 1453.38 Q633.05 1450.9 631.301 1449.51 Q629.571 1448.1 626.467 1448.1 L623.195 1448.1 L623.195 1444.98 L626.618 1444.98 Q629.42 1444.98 630.906 1443.87 Q632.392 1442.74 632.392 1440.63 Q632.392 1438.47 630.85 1437.32 Q629.326 1436.16 626.467 1436.16 Q624.906 1436.16 623.12 1436.49 Q621.333 1436.83 619.189 1437.55 L619.189 1434.16 Q621.352 1433.56 623.232 1433.26 Q625.132 1432.96 626.806 1432.96 Q631.132 1432.96 633.652 1434.93 Q636.172 1436.89 636.172 1440.24 Q636.172 1442.57 634.837 1444.19 Q633.501 1445.79 631.038 1446.41 Z" fill="#000000" fill-rule="evenodd" fill-opacity="1"></path><path clip-path="url(#clip240)" d="M916.29 1485.02 L923.928 1485.02 L923.928 1458.66 L915.618 1460.32 L915.618 1456.06 L923.882 1454.4 L928.558 1454.4 L928.558 1485.02 L936.197 1485.02 L936.197 1488.96 L916.29 1488.96 L916.29 1485.02 Z" fill="#000000" fill-rule="evenodd" fill-opacity="1"></path><path clip-path="url(#clip240)" d="M955.641 1457.48 Q952.03 1457.48 950.201 1461.04 Q948.396 1464.58 948.396 1471.71 Q948.396 1478.82 950.201 1482.38 Q952.03 1485.92 955.641 1485.92 Q959.276 1485.92 961.081 1482.38 Q962.91 1478.82 962.91 1471.71 Q962.91 1464.58 961.081 1461.04 Q959.276 1457.48 955.641 1457.48 M955.641 1453.77 Q961.451 1453.77 964.507 1458.38 Q967.586 1462.96 967.586 1471.71 Q967.586 1480.44 964.507 1485.04 Q961.451 1489.63 955.641 1489.63 Q949.831 1489.63 946.752 1485.04 Q943.697 1480.44 943.697 1471.71 Q943.697 1462.96 946.752 1458.38 Q949.831 1453.77 955.641 1453.77 Z" fill="#000000" fill-rule="evenodd" fill-opacity="1"></path><path clip-path="url(#clip240)" d="M980.262 1436.78 L970.67 1451.77 L980.262 1451.77 L980.262 1436.78 M979.265 1433.47 L984.042 1433.47 L984.042 1451.77 L988.049 1451.77 L988.049 1454.93 L984.042 1454.93 L984.042 1461.55 L980.262 1461.55 L980.262 1454.93 L967.586 1454.93 L967.586 1451.26 L979.265 1433.47 Z" fill="#000000" fill-rule="evenodd" fill-opacity="1"></path><path clip-path="url(#clip240)" d="M1267.67 1485.02 L1275.31 1485.02 L1275.31 1458.66 L1267 1460.32 L1267 1456.06 L1275.26 1454.4 L1279.94 1454.4 L1279.94 1485.02 L1287.57 1485.02 L1287.57 1488.96 L1267.67 1488.96 L1267.67 1485.02 Z" fill="#000000" fill-rule="evenodd" fill-opacity="1"></path><path clip-path="url(#clip240)" d="M1307.02 1457.48 Q1303.41 1457.48 1301.58 1461.04 Q1299.77 1464.58 1299.77 1471.71 Q1299.77 1478.82 1301.58 1482.38 Q1303.41 1485.92 1307.02 1485.92 Q1310.65 1485.92 1312.46 1482.38 Q1314.29 1478.82 1314.29 1471.71 Q1314.29 1464.58 1312.46 1461.04 Q1310.65 1457.48 1307.02 1457.48 M1307.02 1453.77 Q1312.83 1453.77 1315.88 1458.38 Q1318.96 1462.96 1318.96 1471.71 Q1318.96 1480.44 1315.88 1485.04 Q1312.83 1489.63 1307.02 1489.63 Q1301.21 1489.63 1298.13 1485.04 Q1295.07 1480.44 1295.07 1471.71 Q1295.07 1462.96 1298.13 1458.38 Q1301.21 1453.77 1307.02 1453.77 Z" fill="#000000" fill-rule="evenodd" fill-opacity="1"></path><path clip-path="url(#clip240)" d="M1320.15 1433.47 L1335.06 1433.47 L1335.06 1436.66 L1323.63 1436.66 L1323.63 1443.55 Q1324.46 1443.27 1325.28 1443.13 Q1326.11 1442.98 1326.94 1442.98 Q1331.64 1442.98 1334.39 1445.56 Q1337.13 1448.14 1337.13 1452.54 Q1337.13 1457.07 1334.31 1459.59 Q1331.49 1462.09 1326.35 1462.09 Q1324.59 1462.09 1322.74 1461.79 Q1320.92 1461.49 1318.96 1460.89 L1318.96 1457.07 Q1320.66 1457.99 1322.46 1458.44 Q1324.27 1458.89 1326.28 1458.89 Q1329.53 1458.89 1331.43 1457.18 Q1333.33 1455.47 1333.33 1452.54 Q1333.33 1449.6 1331.43 1447.89 Q1329.53 1446.18 1326.28 1446.18 Q1324.76 1446.18 1323.23 1446.52 Q1321.73 1446.86 1320.15 1447.57 L1320.15 1433.47 Z" fill="#000000" fill-rule="evenodd" fill-opacity="1"></path><path clip-path="url(#clip240)" d="M1617.29 1485.02 L1624.93 1485.02 L1624.93 1458.66 L1616.62 1460.32 L1616.62 1456.06 L1624.88 1454.4 L1629.56 1454.4 L1629.56 1485.02 L1637.19 1485.02 L1637.19 1488.96 L1617.29 1488.96 L1617.29 1485.02 Z" fill="#000000" fill-rule="evenodd" fill-opacity="1"></path><path clip-path="url(#clip240)" d="M1656.64 1457.48 Q1653.03 1457.48 1651.2 1461.04 Q1649.39 1464.58 1649.39 1471.71 Q1649.39 1478.82 1651.2 1482.38 Q1653.03 1485.92 1656.64 1485.92 Q1660.27 1485.92 1662.08 1482.38 Q1663.91 1478.82 1663.91 1471.71 Q1663.91 1464.58 1662.08 1461.04 Q1660.27 1457.48 1656.64 1457.48 M1656.64 1453.77 Q1662.45 1453.77 1665.5 1458.38 Q1668.58 1462.96 1668.58 1471.71 Q1668.58 1480.44 1665.5 1485.04 Q1662.45 1489.63 1656.64 1489.63 Q1650.83 1489.63 1647.75 1485.04 Q1644.69 1480.44 1644.69 1471.71 Q1644.69 1462.96 1647.75 1458.38 Q1650.83 1453.77 1656.64 1453.77 Z" fill="#000000" fill-rule="evenodd" fill-opacity="1"></path><path clip-path="url(#clip240)" d="M1678.61 1445.99 Q1676.05 1445.99 1674.54 1447.74 Q1673.06 1449.49 1673.06 1452.54 Q1673.06 1455.57 1674.54 1457.33 Q1676.05 1459.08 1678.61 1459.08 Q1681.17 1459.08 1682.65 1457.33 Q1684.16 1455.57 1684.16 1452.54 Q1684.16 1449.49 1682.65 1447.74 Q1681.17 1445.99 1678.61 1445.99 M1686.15 1434.09 L1686.15 1437.55 Q1684.72 1436.87 1683.25 1436.51 Q1681.8 1436.16 1680.38 1436.16 Q1676.61 1436.16 1674.62 1438.69 Q1672.65 1441.23 1672.36 1446.37 Q1673.47 1444.73 1675.15 1443.87 Q1676.82 1442.98 1678.83 1442.98 Q1683.06 1442.98 1685.51 1445.56 Q1687.97 1448.12 1687.97 1452.54 Q1687.97 1456.86 1685.42 1459.48 Q1682.86 1462.09 1678.61 1462.09 Q1673.74 1462.09 1671.16 1458.37 Q1668.58 1454.62 1668.58 1447.53 Q1668.58 1440.88 1671.74 1436.93 Q1674.9 1432.96 1680.22 1432.96 Q1681.65 1432.96 1683.1 1433.24 Q1684.57 1433.52 1686.15 1434.09 Z" fill="#000000" fill-rule="evenodd" fill-opacity="1"></path><path clip-path="url(#clip240)" d="M1968.19 1485.02 L1975.82 1485.02 L1975.82 1458.66 L1967.51 1460.32 L1967.51 1456.06 L1975.78 1454.4 L1980.45 1454.4 L1980.45 1485.02 L1988.09 1485.02 L1988.09 1488.96 L1968.19 1488.96 L1968.19 1485.02 Z" fill="#000000" fill-rule="evenodd" fill-opacity="1"></path><path clip-path="url(#clip240)" d="M2007.54 1457.48 Q2003.93 1457.48 2002.1 1461.04 Q2000.29 1464.58 2000.29 1471.71 Q2000.29 1478.82 2002.1 1482.38 Q2003.93 1485.92 2007.54 1485.92 Q2011.17 1485.92 2012.98 1482.38 Q2014.81 1478.82 2014.81 1471.71 Q2014.81 1464.58 2012.98 1461.04 Q2011.17 1457.48 2007.54 1457.48 M2007.54 1453.77 Q2013.35 1453.77 2016.4 1458.38 Q2019.48 1462.96 2019.48 1471.71 Q2019.48 1480.44 2016.4 1485.04 Q2013.35 1489.63 2007.54 1489.63 Q2001.73 1489.63 1998.65 1485.04 Q1995.59 1480.44 1995.59 1471.71 Q1995.59 1462.96 1998.65 1458.38 Q2001.73 1453.77 2007.54 1453.77 Z" fill="#000000" fill-rule="evenodd" fill-opacity="1"></path><path clip-path="url(#clip240)" d="M2019.48 1433.47 L2037.54 1433.47 L2037.54 1435.08 L2027.34 1461.55 L2023.37 1461.55 L2032.97 1436.66 L2019.48 1436.66 L2019.48 1433.47 Z" fill="#000000" fill-rule="evenodd" fill-opacity="1"></path><path clip-path="url(#clip240)" d="M2317.81 1485.02 L2325.45 1485.02 L2325.45 1458.66 L2317.14 1460.32 L2317.14 1456.06 L2325.41 1454.4 L2330.08 1454.4 L2330.08 1485.02 L2337.72 1485.02 L2337.72 1488.96 L2317.81 1488.96 L2317.81 1485.02 Z" fill="#000000" fill-rule="evenodd" fill-opacity="1"></path><path clip-path="url(#clip240)" d="M2357.17 1457.48 Q2353.55 1457.48 2351.73 1461.04 Q2349.92 1464.58 2349.92 1471.71 Q2349.92 1478.82 2351.73 1482.38 Q2353.55 1485.92 2357.17 1485.92 Q2360.8 1485.92 2362.61 1482.38 Q2364.43 1478.82 2364.43 1471.71 Q2364.43 1464.58 2362.61 1461.04 Q2360.8 1457.48 2357.17 1457.48 M2357.17 1453.77 Q2362.98 1453.77 2366.03 1458.38 Q2369.11 1462.96 2369.11 1471.71 Q2369.11 1480.44 2366.03 1485.04 Q2362.98 1489.63 2357.17 1489.63 Q2351.36 1489.63 2348.28 1485.04 Q2345.22 1480.44 2345.22 1471.71 Q2345.22 1462.96 2348.28 1458.38 Q2351.36 1453.77 2357.17 1453.77 Z" fill="#000000" fill-rule="evenodd" fill-opacity="1"></path><path clip-path="url(#clip240)" d="M2378.74 1448.21 Q2376.03 1448.21 2374.47 1449.66 Q2372.93 1451.11 2372.93 1453.65 Q2372.93 1456.19 2374.47 1457.63 Q2376.03 1459.08 2378.74 1459.08 Q2381.45 1459.08 2383.01 1457.63 Q2384.57 1456.17 2384.57 1453.65 Q2384.57 1451.11 2383.01 1449.66 Q2381.47 1448.21 2378.74 1448.21 M2374.94 1446.59 Q2372.5 1445.99 2371.12 1444.32 Q2369.77 1442.64 2369.77 1440.24 Q2369.77 1436.87 2372.16 1434.91 Q2374.56 1432.96 2378.74 1432.96 Q2382.93 1432.96 2385.32 1434.91 Q2387.71 1436.87 2387.71 1440.24 Q2387.71 1442.64 2386.34 1444.32 Q2384.98 1445.99 2382.56 1446.59 Q2385.3 1447.23 2386.83 1449.1 Q2388.37 1450.96 2388.37 1453.65 Q2388.37 1457.73 2385.87 1459.91 Q2383.39 1462.09 2378.74 1462.09 Q2374.09 1462.09 2371.59 1459.91 Q2369.11 1457.73 2369.11 1453.65 Q2369.11 1450.96 2370.65 1449.1 Q2372.19 1447.23 2374.94 1446.59 M2373.55 1440.59 Q2373.55 1442.78 2374.9 1444 Q2376.28 1445.22 2378.74 1445.22 Q2381.18 1445.22 2382.56 1444 Q2383.95 1442.78 2383.95 1440.59 Q2383.95 1438.41 2382.56 1437.19 Q2381.18 1435.97 2378.74 1435.97 Q2376.28 1435.97 2374.9 1437.19 Q2373.55 1438.41 2373.55 1440.59 Z" fill="#000000" fill-rule="evenodd" fill-opacity="1"></path><path clip-path="url(#clip240)" d="M1288.3 1551.91 Q1290.37 1552.61 1292.31 1554.9 Q1294.28 1557.19 1296.26 1561.2 L1302.78 1574.19 L1295.87 1574.19 L1289.79 1562 Q1287.44 1557.22 1285.21 1555.66 Q1283.01 1554.1 1279.2 1554.1 L1272.19 1554.1 L1272.19 1574.19 L1265.76 1574.19 L1265.76 1526.67 L1280.28 1526.67 Q1288.43 1526.67 1292.44 1530.07 Q1296.45 1533.48 1296.45 1540.35 Q1296.45 1544.84 1294.35 1547.8 Q1292.28 1550.76 1288.3 1551.91 M1272.19 1531.95 L1272.19 1548.82 L1280.28 1548.82 Q1284.92 1548.82 1287.28 1546.69 Q1289.67 1544.52 1289.67 1540.35 Q1289.67 1536.18 1287.28 1534.08 Q1284.92 1531.95 1280.28 1531.95 L1272.19 1531.95 Z" fill="#000000" fill-rule="evenodd" fill-opacity="1"></path><path clip-path="url(#clip240)" d="M1338.36 1554.9 L1338.36 1557.76 L1311.44 1557.76 Q1311.82 1563.81 1315.07 1566.99 Q1318.34 1570.14 1324.17 1570.14 Q1327.54 1570.14 1330.69 1569.32 Q1333.88 1568.49 1337 1566.83 L1337 1572.37 Q1333.84 1573.71 1330.53 1574.41 Q1327.22 1575.11 1323.82 1575.11 Q1315.29 1575.11 1310.29 1570.14 Q1305.33 1565.18 1305.33 1556.71 Q1305.33 1547.96 1310.04 1542.83 Q1314.78 1537.68 1322.8 1537.68 Q1329.99 1537.68 1334.16 1542.33 Q1338.36 1546.94 1338.36 1554.9 M1332.51 1553.18 Q1332.44 1548.37 1329.8 1545.51 Q1327.19 1542.64 1322.86 1542.64 Q1317.96 1542.64 1315 1545.41 Q1312.07 1548.18 1311.63 1553.21 L1332.51 1553.18 Z" fill="#000000" fill-rule="evenodd" fill-opacity="1"></path><polyline clip-path="url(#clip242)" style="stroke:#000000; stroke-linecap:round; stroke-linejoin:round; stroke-width:2; stroke-opacity:0.1; fill:none" points="
  251.372,1163.3 2352.76,1163.3 
  "></polyline>
<polyline clip-path="url(#clip242)" style="stroke:#000000; stroke-linecap:round; stroke-linejoin:round; stroke-width:2; stroke-opacity:0.1; fill:none" points="
  251.372,47.2441 2352.76,47.2441 
  "></polyline>
<polyline clip-path="url(#clip242)" style="stroke:#000000; stroke-linecap:round; stroke-linejoin:round; stroke-width:2; stroke-opacity:0.05; fill:none" points="
  251.372,1410.9 2352.76,1410.9 
  "></polyline>
<polyline clip-path="url(#clip242)" style="stroke:#000000; stroke-linecap:round; stroke-linejoin:round; stroke-width:2; stroke-opacity:0.05; fill:none" points="
  251.372,1336.18 2352.76,1336.18 
  "></polyline>
<polyline clip-path="url(#clip242)" style="stroke:#000000; stroke-linecap:round; stroke-linejoin:round; stroke-width:2; stroke-opacity:0.05; fill:none" points="
  251.372,1271.46 2352.76,1271.46 
  "></polyline>
<polyline clip-path="url(#clip242)" style="stroke:#000000; stroke-linecap:round; stroke-linejoin:round; stroke-width:2; stroke-opacity:0.05; fill:none" points="
  251.372,1214.37 2352.76,1214.37 
  "></polyline>
<polyline clip-path="url(#clip242)" style="stroke:#000000; stroke-linecap:round; stroke-linejoin:round; stroke-width:2; stroke-opacity:0.05; fill:none" points="
  251.372,827.334 2352.76,827.334 
  "></polyline>
<polyline clip-path="url(#clip242)" style="stroke:#000000; stroke-linecap:round; stroke-linejoin:round; stroke-width:2; stroke-opacity:0.05; fill:none" points="
  251.372,630.806 2352.76,630.806 
  "></polyline>
<polyline clip-path="url(#clip242)" style="stroke:#000000; stroke-linecap:round; stroke-linejoin:round; stroke-width:2; stroke-opacity:0.05; fill:none" points="
  251.372,491.368 2352.76,491.368 
  "></polyline>
<polyline clip-path="url(#clip242)" style="stroke:#000000; stroke-linecap:round; stroke-linejoin:round; stroke-width:2; stroke-opacity:0.05; fill:none" points="
  251.372,383.211 2352.76,383.211 
  "></polyline>
<polyline clip-path="url(#clip242)" style="stroke:#000000; stroke-linecap:round; stroke-linejoin:round; stroke-width:2; stroke-opacity:0.05; fill:none" points="
  251.372,294.84 2352.76,294.84 
  "></polyline>
<polyline clip-path="url(#clip242)" style="stroke:#000000; stroke-linecap:round; stroke-linejoin:round; stroke-width:2; stroke-opacity:0.05; fill:none" points="
  251.372,220.123 2352.76,220.123 
  "></polyline>
<polyline clip-path="url(#clip242)" style="stroke:#000000; stroke-linecap:round; stroke-linejoin:round; stroke-width:2; stroke-opacity:0.05; fill:none" points="
  251.372,155.401 2352.76,155.401 
  "></polyline>
<polyline clip-path="url(#clip242)" style="stroke:#000000; stroke-linecap:round; stroke-linejoin:round; stroke-width:2; stroke-opacity:0.05; fill:none" points="
  251.372,98.3121 2352.76,98.3121 
  "></polyline>
<polyline clip-path="url(#clip240)" style="stroke:#000000; stroke-linecap:round; stroke-linejoin:round; stroke-width:4; stroke-opacity:1; fill:none" points="
  251.372,1410.9 251.372,47.2441 
  "></polyline>
<polyline clip-path="url(#clip240)" style="stroke:#000000; stroke-linecap:round; stroke-linejoin:round; stroke-width:4; stroke-opacity:1; fill:none" points="
  2352.76,1410.9 2352.76,47.2441 
  "></polyline>
<polyline clip-path="url(#clip240)" style="stroke:#000000; stroke-linecap:round; stroke-linejoin:round; stroke-width:4; stroke-opacity:1; fill:none" points="
  251.372,1163.3 270.27,1163.3 
  "></polyline>
<polyline clip-path="url(#clip240)" style="stroke:#000000; stroke-linecap:round; stroke-linejoin:round; stroke-width:4; stroke-opacity:1; fill:none" points="
  251.372,47.2441 270.27,47.2441 
  "></polyline>
<polyline clip-path="url(#clip240)" style="stroke:#000000; stroke-linecap:round; stroke-linejoin:round; stroke-width:4; stroke-opacity:1; fill:none" points="
  251.372,1410.9 260.821,1410.9 
  "></polyline>
<polyline clip-path="url(#clip240)" style="stroke:#000000; stroke-linecap:round; stroke-linejoin:round; stroke-width:4; stroke-opacity:1; fill:none" points="
  251.372,1336.18 260.821,1336.18 
  "></polyline>
<polyline clip-path="url(#clip240)" style="stroke:#000000; stroke-linecap:round; stroke-linejoin:round; stroke-width:4; stroke-opacity:1; fill:none" points="
  251.372,1271.46 260.821,1271.46 
  "></polyline>
<polyline clip-path="url(#clip240)" style="stroke:#000000; stroke-linecap:round; stroke-linejoin:round; stroke-width:4; stroke-opacity:1; fill:none" points="
  251.372,1214.37 260.821,1214.37 
  "></polyline>
<polyline clip-path="url(#clip240)" style="stroke:#000000; stroke-linecap:round; stroke-linejoin:round; stroke-width:4; stroke-opacity:1; fill:none" points="
  251.372,827.334 260.821,827.334 
  "></polyline>
<polyline clip-path="url(#clip240)" style="stroke:#000000; stroke-linecap:round; stroke-linejoin:round; stroke-width:4; stroke-opacity:1; fill:none" points="
  251.372,630.806 260.821,630.806 
  "></polyline>
<polyline clip-path="url(#clip240)" style="stroke:#000000; stroke-linecap:round; stroke-linejoin:round; stroke-width:4; stroke-opacity:1; fill:none" points="
  251.372,491.368 260.821,491.368 
  "></polyline>
<polyline clip-path="url(#clip240)" style="stroke:#000000; stroke-linecap:round; stroke-linejoin:round; stroke-width:4; stroke-opacity:1; fill:none" points="
  251.372,383.211 260.821,383.211 
  "></polyline>
<polyline clip-path="url(#clip240)" style="stroke:#000000; stroke-linecap:round; stroke-linejoin:round; stroke-width:4; stroke-opacity:1; fill:none" points="
  251.372,294.84 260.821,294.84 
  "></polyline>
<polyline clip-path="url(#clip240)" style="stroke:#000000; stroke-linecap:round; stroke-linejoin:round; stroke-width:4; stroke-opacity:1; fill:none" points="
  251.372,220.123 260.821,220.123 
  "></polyline>
<polyline clip-path="url(#clip240)" style="stroke:#000000; stroke-linecap:round; stroke-linejoin:round; stroke-width:4; stroke-opacity:1; fill:none" points="
  251.372,155.401 260.821,155.401 
  "></polyline>
<polyline clip-path="url(#clip240)" style="stroke:#000000; stroke-linecap:round; stroke-linejoin:round; stroke-width:4; stroke-opacity:1; fill:none" points="
  251.372,98.3121 260.821,98.3121 
  "></polyline>
<path clip-path="url(#clip240)" d="M115.232 1183.09 L122.871 1183.09 L122.871 1156.73 L114.561 1158.39 L114.561 1154.14 L122.825 1152.47 L127.501 1152.47 L127.501 1183.09 L135.14 1183.09 L135.14 1187.03 L115.232 1187.03 L115.232 1183.09 Z" fill="#000000" fill-rule="evenodd" fill-opacity="1"></path><path clip-path="url(#clip240)" d="M154.584 1155.55 Q150.973 1155.55 149.144 1159.11 Q147.339 1162.65 147.339 1169.78 Q147.339 1176.89 149.144 1180.45 Q150.973 1184 154.584 1184 Q158.218 1184 160.024 1180.45 Q161.852 1176.89 161.852 1169.78 Q161.852 1162.65 160.024 1159.11 Q158.218 1155.55 154.584 1155.55 M154.584 1151.84 Q160.394 1151.84 163.45 1156.45 Q166.528 1161.03 166.528 1169.78 Q166.528 1178.51 163.45 1183.12 Q160.394 1187.7 154.584 1187.7 Q148.774 1187.7 145.695 1183.12 Q142.64 1178.51 142.64 1169.78 Q142.64 1161.03 145.695 1156.45 Q148.774 1151.84 154.584 1151.84 Z" fill="#000000" fill-rule="evenodd" fill-opacity="1"></path><path clip-path="url(#clip240)" d="M166.528 1145.94 L190.64 1145.94 L190.64 1149.14 L166.528 1149.14 L166.528 1145.94 Z" fill="#000000" fill-rule="evenodd" fill-opacity="1"></path><path clip-path="url(#clip240)" d="M202.113 1156.42 L215.372 1156.42 L215.372 1159.62 L197.542 1159.62 L197.542 1156.42 Q199.705 1154.18 203.429 1150.42 Q207.172 1146.64 208.131 1145.55 Q209.956 1143.5 210.67 1142.09 Q211.404 1140.66 211.404 1139.29 Q211.404 1137.05 209.824 1135.64 Q208.263 1134.23 205.743 1134.23 Q203.956 1134.23 201.962 1134.85 Q199.987 1135.47 197.73 1136.73 L197.73 1132.89 Q200.025 1131.97 202.019 1131.5 Q204.012 1131.03 205.667 1131.03 Q210.031 1131.03 212.626 1133.21 Q215.222 1135.39 215.222 1139.04 Q215.222 1140.77 214.563 1142.33 Q213.924 1143.88 212.212 1145.98 Q211.742 1146.53 209.222 1149.14 Q206.702 1151.74 202.113 1156.42 Z" fill="#000000" fill-rule="evenodd" fill-opacity="1"></path><path clip-path="url(#clip240)" d="M114.931 67.0365 L122.57 67.0365 L122.57 40.6709 L114.26 42.3376 L114.26 38.0784 L122.524 36.4117 L127.2 36.4117 L127.2 67.0365 L134.839 67.0365 L134.839 70.9717 L114.931 70.9717 L114.931 67.0365 Z" fill="#000000" fill-rule="evenodd" fill-opacity="1"></path><path clip-path="url(#clip240)" d="M154.283 39.4904 Q150.672 39.4904 148.843 43.0552 Q147.038 46.5968 147.038 53.7264 Q147.038 60.8329 148.843 64.3977 Q150.672 67.9393 154.283 67.9393 Q157.917 67.9393 159.723 64.3977 Q161.552 60.8329 161.552 53.7264 Q161.552 46.5968 159.723 43.0552 Q157.917 39.4904 154.283 39.4904 M154.283 35.7867 Q160.093 35.7867 163.149 40.3932 Q166.227 44.9765 166.227 53.7264 Q166.227 62.4532 163.149 67.0597 Q160.093 71.643 154.283 71.643 Q148.473 71.643 145.394 67.0597 Q142.339 62.4532 142.339 53.7264 Q142.339 44.9765 145.394 40.3932 Q148.473 35.7867 154.283 35.7867 Z" fill="#000000" fill-rule="evenodd" fill-opacity="1"></path><path clip-path="url(#clip240)" d="M166.227 29.888 L190.339 29.888 L190.339 33.0854 L166.227 33.0854 L166.227 29.888 Z" fill="#000000" fill-rule="evenodd" fill-opacity="1"></path><path clip-path="url(#clip240)" d="M199.197 40.364 L205.404 40.364 L205.404 18.9419 L198.652 20.2961 L198.652 16.8355 L205.366 15.4813 L209.166 15.4813 L209.166 40.364 L215.372 40.364 L215.372 43.5613 L199.197 43.5613 L199.197 40.364 Z" fill="#000000" fill-rule="evenodd" fill-opacity="1"></path><path clip-path="url(#clip240)" d="M14.479 717.723 L19.3487 717.723 L19.3487 723.325 Q19.3487 726.476 20.6219 727.718 Q21.895 728.927 25.2052 728.927 L28.3562 728.927 L28.3562 719.283 L32.9077 719.283 L32.9077 728.927 L64.0042 728.927 L64.0042 734.815 L32.9077 734.815 L32.9077 740.417 L28.3562 740.417 L28.3562 734.815 L25.8736 734.815 Q19.9216 734.815 17.2162 732.046 Q14.479 729.277 14.479 723.262 L14.479 717.723 Z" fill="#000000" fill-rule="evenodd" fill-opacity="1"></path><polyline clip-path="url(#clip242)" style="stroke:#000000; stroke-linecap:round; stroke-linejoin:round; stroke-width:4; stroke-opacity:1; fill:none" points="
  496.173,-72.4083 812.463,935.491 
  "></polyline>
<polyline clip-path="url(#clip242)" style="stroke:#000000; stroke-linecap:round; stroke-linejoin:round; stroke-width:4; stroke-opacity:1; fill:none" points="
  707.033,368.929 739.947,399.329 772.862,428.298 805.776,455.818 838.691,481.869 871.605,506.413 904.52,529.416 937.434,550.856 970.348,570.684 1003.26,588.891 
  1036.18,605.477 1069.09,620.439 1102.01,633.815 1134.92,645.658 1167.84,656.027 1200.75,665.042 1233.66,672.796 1266.58,679.415 1299.49,685 1332.41,689.695 
  1365.32,693.613 1398.24,696.86 1431.15,699.549 1464.07,701.757 1496.98,703.561 1529.89,705.03 1562.81,706.231 1595.72,707.205 1628.64,708.009 1661.55,708.642 
  1694.47,709.16 1727.38,709.578 1760.3,709.924 1793.21,710.198 1826.12,710.415 1859.04,710.602 1891.95,710.747 1924.87,710.863 1957.78,710.949 1990.7,711.022 
  2023.61,711.094 2056.53,711.137 2089.44,711.181 2122.35,711.21 2155.27,711.238 2188.18,711.253 2221.1,711.267 2254.01,711.282 2286.93,711.296 2319.84,711.311 
  2352.76,711.311 
  "></polyline>
<polyline clip-path="url(#clip242)" style="stroke:#000000; stroke-linecap:round; stroke-linejoin:round; stroke-width:4; stroke-opacity:1; fill:none" points="
  707.033,381.863 739.947,414.255 772.862,445.511 805.776,475.637 838.691,504.672 871.605,532.597 904.52,559.409 937.434,585.074 970.348,609.611 1003.26,632.94 
  1036.18,655.073 1069.09,675.933 1102.01,695.485 1134.92,713.718 1167.84,730.567 1200.75,746.014 1233.66,760.077 1266.58,772.727 1299.49,784.015 1332.41,793.983 
  1365.32,802.699 1398.24,810.243 1431.15,816.726 1464.07,822.224 1496.98,826.874 1529.89,830.773 1562.81,834.005 1595.72,836.695 1628.64,838.911 1661.55,840.722 
  1694.47,842.217 1727.38,843.422 1760.3,844.411 1793.21,845.211 1826.12,845.86 1859.04,846.385 1891.95,846.815 1924.87,847.16 1957.78,847.438 1990.7,847.658 
  2023.61,847.84 2056.53,847.993 2089.44,848.109 2122.35,848.204 2155.27,848.281 2188.18,848.339 2221.1,848.387 2254.01,848.435 2286.93,848.464 2319.84,848.492 
  2352.76,848.512 
  "></polyline>
<polyline clip-path="url(#clip242)" style="stroke:#000000; stroke-linecap:round; stroke-linejoin:round; stroke-width:4; stroke-opacity:1; fill:none" points="
  707.033,386.533 739.947,419.661 772.862,451.804 805.776,482.969 838.691,513.19 871.605,542.513 904.52,570.944 937.434,598.504 970.348,625.2 1003.26,651.032 
  1036.18,676 1069.09,700.114 1102.01,723.336 1134.92,745.656 1167.84,767.038 1200.75,787.448 1233.66,806.857 1266.58,825.215 1299.49,842.473 1332.41,858.6 
  1365.32,873.55 1398.24,887.309 1431.15,899.846 1464.07,911.151 1496.98,921.273 1529.89,930.223 1562.81,938.058 1595.72,944.861 1628.64,950.705 1661.55,955.673 
  1694.47,959.882 1727.38,963.398 1760.3,966.339 1793.21,968.782 1826.12,970.779 1859.04,972.437 1891.95,973.778 1924.87,974.885 1957.78,975.783 1990.7,976.508 
  2023.61,977.096 2056.53,977.584 2089.44,977.973 2122.35,978.286 2155.27,978.537 2188.18,978.738 2221.1,978.902 2254.01,979.04 2286.93,979.14 2319.84,979.228 
  2352.76,979.304 
  "></polyline>
<polyline clip-path="url(#clip242)" style="stroke:#000000; stroke-linecap:round; stroke-linejoin:round; stroke-width:4; stroke-opacity:1; fill:none" points="
  707.033,333.27 739.947,358.855 772.862,382.538 805.776,404.263 838.691,424.056 871.605,441.913 904.52,457.907 937.434,472.092 970.348,484.543 1003.26,495.355 
  1036.18,504.691 1069.09,512.652 1102.01,519.421 1134.92,525.091 1167.84,529.833 1200.75,533.769 1233.66,537.03 1266.58,539.713 1299.49,541.911 1332.41,543.699 
  1365.32,545.175 1398.24,546.347 1431.15,547.316 1464.07,548.1 1496.98,548.741 1529.89,549.259 1562.81,549.673 1595.72,550.005 1628.64,550.275 1661.55,550.482 
  1694.47,550.669 1727.38,550.804 1760.3,550.918 1793.21,551.002 1826.12,551.085 1859.04,551.147 1891.95,551.189 1924.87,551.23 1957.78,551.261 1990.7,551.293 
  2023.61,551.313 2056.53,551.324 2089.44,551.334 2122.35,551.355 2155.27,551.355 2188.18,551.355 2221.1,551.376 2254.01,551.376 2286.93,551.376 2319.84,551.376 
  2352.76,551.376 
  "></polyline>
<polyline clip-path="url(#clip242)" style="stroke:#000000; stroke-linecap:round; stroke-linejoin:round; stroke-width:4; stroke-opacity:1; fill:none" points="
  707.033,233.913 739.947,250.152 772.862,264.347 805.776,276.628 838.691,287.174 871.605,296.145 904.52,303.71 937.434,310.066 970.348,315.354 1003.26,319.733 
  1036.18,323.345 1069.09,326.317 1102.01,328.755 1134.92,330.73 1167.84,332.342 1200.75,333.655 1233.66,334.718 1266.58,335.583 1299.49,336.277 1332.41,336.837 
  1365.32,337.292 1398.24,337.667 1431.15,337.961 1464.07,338.202 1496.98,338.39 1529.89,338.551 1562.81,338.685 1595.72,338.779 1628.64,338.859 1661.55,338.926 
  1694.47,338.98 1727.38,339.02 1760.3,339.061 1793.21,339.087 1826.12,339.114 1859.04,339.114 1891.95,339.141 1924.87,339.141 1957.78,339.168 1990.7,339.168 
  2023.61,339.168 2056.53,339.168 2089.44,339.181 2122.35,339.195 2155.27,339.195 2188.18,339.195 2221.1,339.195 2254.01,339.195 2286.93,339.195 2319.84,339.195 
  2352.76,339.195 
  "></polyline>
<polyline clip-path="url(#clip242)" style="stroke:#0000ff; stroke-linecap:round; stroke-linejoin:round; stroke-width:4; stroke-opacity:1; fill:none" points="
  1129.18,204.681 1165.23,256.79 1201.26,306.241 1237.63,353.292 1273.05,398.164 1309.14,441.05 1345.43,482.12 1381.74,521.52 1417.68,559.38 1453.75,595.818 
  1489.45,630.935 1525.99,664.825 1561.87,697.57 1598.01,729.244 1633.88,759.917 1670.08,789.649 1705.96,818.495 1742.08,846.508 1778.31,873.735 1814.25,900.217 
  1850.28,925.996 1886.12,951.106 1922.51,975.582 1958.44,999.456 1994.5,1022.76 2030.42,1045.51 2066.56,1067.74 2102.83,1089.47 2138.6,1110.73 2174.89,1131.53 
  2210.92,1151.89 
  "></polyline>
<polyline clip-path="url(#clip242)" style="stroke:#0000ff; stroke-linecap:round; stroke-linejoin:round; stroke-width:4; stroke-opacity:1; fill:none" points="
  707.033,388.557 750.216,432.266 793.399,474.384 836.582,514.989 879.765,554.198 922.948,592.086 966.131,628.739 1009.31,664.228 1052.5,698.614 1095.68,731.959 
  1138.86,764.331 1182.05,795.768 1225.23,826.334 1268.41,856.062 1311.6,884.995 1354.78,913.176 1397.96,940.631 1441.15,967.409 1484.33,993.533 1527.51,1019.04 
  1570.69,1043.95 1613.88,1068.29 1657.06,1092.08 1700.24,1115.35 1743.43,1138.12 1786.61,1160.41 1829.79,1182.24 1872.98,1203.62 1916.16,1224.58 1959.34,1245.12 
  2002.53,1265.27 
  "></polyline>
<circle clip-path="url(#clip242)" cx="1336.77" cy="690.264" r="14.4" fill="#ff0000" fill-rule="evenodd" fill-opacity="1" stroke="none"></circle>
<polyline clip-path="url(#clip242)" style="stroke:#ff0000; stroke-linecap:round; stroke-linejoin:round; stroke-width:4; stroke-opacity:1; fill:none" stroke-dasharray="16, 10" points="
  986.536,1804.01 1687,-428.106 
  "></polyline>
</svg>